# xmcd
#
# Track frame offsets:
# 150
# 16574
# 32526
# 48617
#
# Disc length: 823 seconds
#
#
# Revision: 0
# Processed by: cddbd v1.5.1PL0 Copyright (c) Steve Scherf et al.
# Submitted via: FreeRIP 2.91 
#
DISCID=22033504
DTITLE=luis miguel - mexico en la piel
DYEAR=1900
DGENRE=Ballad
TTITLE0=el viajero
TTITLE1=cruz de olvido
TTITLE2=motivos
TTITLE3=cielo rojo
EXTD=
EXTT0=
EXTT1=
EXTT2=
EXTT3=
PLAYORDER=
